<?xml version="1.0" encoding="utf-8"?>
<!-- Generator: Adobe Illustrator 23.0.1, SVG Export Plug-In . SVG Version: 6.00 Build 0)  -->
<svg version="1.1" id="Livello_1" xmlns="http://www.w3.org/2000/svg" xmlns:xlink="http://www.w3.org/1999/xlink" x="0px" y="0px"
	 viewBox="0 0 128 128" style="enable-background:new 0 0 128 128;" xml:space="preserve">
<style type="text/css">
	.st0{fill:#00DADC;}
	.st1{fill:#FFFFFF;}
</style>
<title></title>
<path class="st0" d="M64,0C28.7,0,0,28.7,0,64s28.7,64,64,64s64-28.7,64-64C128,28.7,99.3,0,64,0z M64,122C32,122,6,96,6,64
	S32,6,64,6s58,26,58,58C122,96,96,122,64,122z"/>
<circle class="st0" cx="64" cy="64.4" r="58.4"/>
<path class="st1" d="M58.1,35.9c-1.2-1.1-3.1-1.1-4.2,0.1c-1.1,1.2-1.1,2.9,0,4.1L77.8,64L53.9,87.9c-1.2,1.1-1.3,3-0.1,4.2
	s3,1.3,4.2,0.1c0.1,0,0.1-0.1,0.1-0.1l26-26c1.2-1.2,1.2-3.1,0-4.2L58.1,35.9z"/>
</svg>
