<?xml version="1.0"?>
<svg width="200" height="200" xmlns="http://www.w3.org/2000/svg" xmlns:svg="http://www.w3.org/2000/svg" xmlns:xlink="http://www.w3.org/1999/xlink">
 <!-- Created with SVG-edit - https://github.com/SVG-Edit/svgedit-->
 <defs>
  <symbol id="svg_3" viewBox="0 0 384.97 384.97" x="0px" xmlns="http://www.w3.org/2000/svg" xmlns:xlink="http://www.w3.org/1999/xlink" y="0px">
   <g>
    <g id="svg_2">
     <path d="m192.485,0c-106.312,0 -192.485,86.185 -192.485,192.485c0,106.312 86.173,192.485 192.485,192.485c106.3,0 192.485,-86.173 192.485,-192.485c0,-106.3 -86.185,-192.485 -192.485,-192.485zm0,360.909c-92.874,0 -168.797,-75.55 -168.797,-168.424s75.923,-168.424 168.797,-168.424s168.424,75.55 168.424,168.424s-75.55,168.424 -168.424,168.424z"/>
     <path d="m200.894,135.858c-4.62,-4.572 -12.56,-4.584 -17.191,0l-84.2,82.997c-4.74,4.704 -4.74,12.319 0,17.011c4.752,4.704 12.439,4.704 17.191,0l75.61,-74.528l75.61,74.54c4.74,4.704 12.439,4.704 17.191,0c4.74,-4.704 4.74,-12.319 0,-17.011l-84.211,-83.009z"/>
    </g>
    <g/>
    <g/>
    <g/>
    <g/>
    <g/>
    <g/>
   </g>
   <g/>
   <g/>
   <g/>
   <g/>
   <g/>
   <g/>
   <g/>
   <g/>
   <g/>
   <g/>
   <g/>
   <g/>
   <g/>
   <g/>
   <g/>
  </symbol>
 </defs>
 <g class="layer">
  <title>Layer 1</title>
  <use fill="#fff200" id="svg_4" transform="matrix(0.977107 0 0 0.977107 -1.35098 -8.71276e-8)" x="4.812125" xlink:href="#svg_3" y="2.406062"/>
  <g id="svg_5"/>
 </g>
</svg>